<?xml version="1.0" encoding="utf-8"?>
<!-- created by empty soul -->
<svg version="1.1" id="logofont" xmlns="http://www.w3.org/2000/svg" xmlns:xlink="http://www.w3.org/1999/xlink" x="0px" y="0px"
	 viewBox="0 0 885 110" style="enable-background:new 0 0 885 110;" xml:space="preserve">
<style type="text/css">
	.eslogoname01{fill:#020203;}
</style>
<g>
	<path class="eslogoname01" d="M194,1.4l-50,70.8l-0.1-0.1v10.8h0.2l43-60.5v87h7L194,1.4L194,1.4z M94.2,1.4H94v108h7.1V11.2L94.2,1.4z"/>
</g>
<g>
	<path class="eslogoname01" d="M275.1,8.2c-5.8-5-13.7-7.5-23.6-7.6h-24.1v6.9h24.9c7.8,0,13.8,2.1,18.1,6.2c3.9,3.8,6.1,7.9,6.4,13.5
		c0.5,8.3-3.4,17-10.6,21.5c-3.9,2.5-9,3.8-15.3,3.8h-23.4v56.8h7.2V59.5h16.2c7.5,0,13.7-1.4,18.6-4.3c4.7-2.6,8.6-6.6,11-11.4
		c3.1-6,4.1-13.7,3.2-20.4C282.8,17.2,279.8,12.2,275.1,8.2z"/>
</g>
<g>
	<path class="eslogoname01" d="M306.5,0.6v6.9H337v101.7h7.2V0.6H306.5z"/>
</g>
<g>
	<path class="eslogoname01" d="M453,0.6l-35,51.3L382.6,0.6h-8.8L414.3,60v49.4h7.2V60l40.2-59.4H453z"/>
</g>
<g>
	<path class="eslogoname01" d="M687.4,28.9c-5-8.6-12.1-15.7-20.7-20.7c-8.6-5.1-18.4-7.7-28.3-7.7c-9.9-0.1-19.6,2.6-28.1,7.7
		c-8.5,5-15.5,12.2-20.5,20.7s-7.7,18.3-7.6,28.2c-0.1,10.1,2.5,20,7.5,28.8c4.9,8.5,12,15.4,20.5,20.2c1.4,0.8,2.9,1.5,4.3,2.2
		v-8.6c-0.2-0.1-0.3-0.2-0.5-0.3c-7.3-4.3-13.4-10.5-17.6-17.8c-4.3-7.4-6.6-15.8-6.5-24.4c-0.1-17.4,9-33.6,24-42.6
		c15.1-9,33.9-9,49-0.1c7.4,4.4,13.5,10.6,17.8,18c4.4,7.5,6.7,16,6.6,24.6c0.1,17.5-9.1,33.7-24.3,42.5c-0.2,0.1-0.4,0.3-0.7,0.4
		v8.2c1.5-0.7,3-1.5,4.5-2.3c8.6-4.9,15.7-12,20.7-20.5C697.6,67.8,697.6,46.3,687.4,28.9L687.4,28.9z"/>
</g>
<g>
	<path class="eslogoname01" d="M782.9,0.6v72.3c0.1,5.5-1.2,10.9-3.8,15.7c-2.4,4.4-5.9,7.9-10.3,10.3c-9.3,4.8-20.4,4.8-29.7,0
		c-4.3-2.4-7.9-6-10.2-10.3c-2.5-4.8-3.8-10.2-3.7-15.7V0.6H718v72.7c0,7.5,1.6,13.9,4.7,19.3c3,5.3,7.5,9.6,12.9,12.5
		c5.6,2.9,11.9,4.4,18.3,4.3c6.4,0.1,12.8-1.4,18.5-4.3c5.4-2.8,9.9-7.2,12.9-12.5c3.1-5.4,4.7-11.8,4.7-19.3V0.6H782.9z"/>
</g>
<g>
	<path class="eslogoname01" d="M826.9,102.5V0.6h-7.2v108.8h64.4v-6.9H826.9L826.9,102.5z"/>
</g>
<g>
	<polygon class="eslogoname01" points="66.6,59 11.6,59 54.7,105.3 50.3,109.4 0.7,56 6.1,50.1 51.4,1.5 55.8,5.6 11.6,53 66.6,53 	"/>
</g>
<g>
	<polygon class="eslogoname01" points="511.9,109.4 507.1,104.2 459.3,52.6 549.1,52.6 511.9,12.5 485.7,40.7 480.2,35.7 511.9,1.6 
		516.5,6.6 566.1,60 476.3,60 511.9,98.5 538.1,70.2 543.6,75.2 	"/>
</g>
</svg>
