<?xml version="1.0" encoding="utf-8"?>
<!-- Empty Soul Logo 2020  -->
<svg version="1.1" id="ESLogo2020" xmlns="http://www.w3.org/2000/svg" xmlns:xlink="http://www.w3.org/1999/xlink" x="0px" y="0px"
	 viewBox="0 0 1000 1000" style="enable-background:new 0 0 1000 1000;" fill="#2eb097" xml:space="preserve">
<path d="M0,500C153.7,333.4,307.4,166.8,461.3,0l42.2,39.3C370.9,183.1,238.3,326.7,105.4,470.9c254.6,0,508.3,0,763,0
	c-92.2-99.9-183.9-199.3-275.9-299c-65.2,70.5-130.1,140.8-195.4,211.7l-42.2-39.3C434,258.4,513,172.8,592.4,86.9
	C728.2,234.1,864,381.6,1000,528.9l-6.9,0c-219.6,0-439.2,0-658.9,0c-1.6,0-3.2,0-4.8,0c-0.1,0.3-0.2,0.5-0.3,0.8
	c87.7,95,175.3,190,263.2,285.3l195.3-211.7l42.2,39.3c-79,85.9-237.3,257.5-237.3,257.5L381.6,671.5
	c-43-46.6-85.9-93.1-128.9-139.8c-1.7-1.9-3.4-3-6.1-3c-45.7,0.1-141.4,0.3-141.4,0.3c133.1,144.2,265.5,287.8,398.2,431.6
	c-14.1,13.2-27.9,26-42.2,39.4C307.5,833.3,153.8,666.7,0,500z"/>
</svg>
