
<svg display="none" xmlns="http://www.w3.org/2000/svg">

  <symbol id="icon-test" viewBox="0 0 32 32">
    <path d="M0.729 10.191c-0.061-0.424-0.098-0.847-0.109-1.269 0-0.008 0-0.015 0-0.023 0.065-3.807 3.485-6.88 7.689-6.88s7.624 3.073 7.689 6.88c0.001 0.037 0.001 0.073 0.001 0.11 0-0.037 0-0.073 0.001-0.11 0.065-3.807 3.485-6.88 7.689-6.88s7.624 3.073 7.689 6.88h0.001c0 0 0.969 6.792-15.38 21.081 0 0-13.875-10.014-15.271-19.79z"></path>
  </symbol>

  <symbol id="icon-emptysoul_logo_font_05032020" viewBox="0 0 257 32">
    <path d="M56.436 0.407l-14.545 20.596-0.029-0.029v3.142h0.058l12.509-17.6v25.309h2.036l-0.029-31.418zM27.404 0.407h-0.058v31.418h2.065v-28.567l-2.007-2.851z"></path>
    <path d="M80.029 2.385c-1.687-1.455-3.985-2.182-6.865-2.211h-7.011v2.007h7.244c2.269 0 4.015 0.611 5.265 1.804 1.135 1.105 1.775 2.298 1.862 3.927 0.145 2.415-0.989 4.945-3.084 6.255-1.135 0.727-2.618 1.105-4.451 1.105h-6.807v16.524h2.095v-14.487h4.713c2.182 0 3.985-0.407 5.411-1.251 1.367-0.756 2.502-1.92 3.2-3.316 0.902-1.745 1.193-3.985 0.931-5.935-0.262-1.804-1.135-3.258-2.502-4.422z"></path>
    <path d="M89.164 0.175v2.007h8.873v29.585h2.095v-31.593h-10.967z"></path>
    <path d="M131.782 0.175l-10.182 14.924-10.298-14.924h-2.56l11.782 17.28v14.371h2.095v-14.371l11.695-17.28h-2.531z"></path>
    <path d="M199.971 8.407c-1.455-2.502-3.52-4.567-6.022-6.022-2.502-1.484-5.353-2.24-8.233-2.24-2.88-0.029-5.702 0.756-8.175 2.24-2.473 1.455-4.509 3.549-5.964 6.022s-2.24 5.324-2.211 8.204c-0.029 2.938 0.727 5.818 2.182 8.378 1.425 2.473 3.491 4.48 5.964 5.876 0.407 0.233 0.844 0.436 1.251 0.64v-2.502c-0.058-0.029-0.087-0.058-0.145-0.087-2.124-1.251-3.898-3.055-5.12-5.178-1.251-2.153-1.92-4.596-1.891-7.098-0.029-5.062 2.618-9.775 6.982-12.393 4.393-2.618 9.862-2.618 14.255-0.029 2.153 1.28 3.927 3.084 5.178 5.236 1.28 2.182 1.949 4.655 1.92 7.156 0.029 5.091-2.647 9.804-7.069 12.364-0.058 0.029-0.116 0.087-0.204 0.116v2.385c0.436-0.204 0.873-0.436 1.309-0.669 2.502-1.425 4.567-3.491 6.022-5.964 2.938-5.12 2.938-11.375-0.029-16.436v0z"></path>
    <path d="M227.753 0.175v21.033c0.029 1.6-0.349 3.171-1.105 4.567-0.698 1.28-1.716 2.298-2.996 2.996-2.705 1.396-5.935 1.396-8.64 0-1.251-0.698-2.298-1.745-2.967-2.996-0.727-1.396-1.105-2.967-1.076-4.567v-21.033h-2.095v21.149c0 2.182 0.465 4.044 1.367 5.615 0.873 1.542 2.182 2.793 3.753 3.636 1.629 0.844 3.462 1.28 5.324 1.251 1.862 0.029 3.724-0.407 5.382-1.251 1.571-0.815 2.88-2.095 3.753-3.636 0.902-1.571 1.367-3.433 1.367-5.615v-21.149h-2.065z"></path>
    <path d="M240.553 29.818v-29.644h-2.095v31.651h18.735v-2.007h-16.64z"></path>
    <path d="M19.375 17.164h-16l12.538 13.469-1.28 1.193-14.429-15.535 1.571-1.716 13.178-14.138 1.28 1.193-12.858 13.789h16z"></path>
    <path d="M148.916 31.825l-1.396-1.513-13.905-15.011h26.124l-10.822-11.665-7.622 8.204-1.6-1.455 9.222-9.92 1.338 1.455 14.429 15.535h-26.124l10.356 11.2 7.622-8.233 1.6 1.455z"></path>
  </symbol>

  <symbol id="icon-empty_soul_logo2020" viewBox="0 0 32 32">
    <path d="M0 16c4.918-5.331 9.837-10.662 14.762-16l1.35 1.258c-4.243 4.602-8.486 9.197-12.739 13.811 8.147 0 16.266 0 24.416 0-2.95-3.197-5.885-6.378-8.829-9.568-2.086 2.256-4.163 4.506-6.253 6.774l-1.35-1.258c2.531-2.749 5.059-5.488 7.6-8.237 4.346 4.71 8.691 9.43 13.043 14.144h-0.221c-7.027 0-14.054 0-21.085 0-0.051 0-0.102 0-0.154 0-0.003 0.010-0.006 0.016-0.010 0.026 2.806 3.040 5.61 6.080 8.422 9.13l6.25-6.774 1.35 1.258c-2.528 2.749-7.594 8.24-7.594 8.24l-6.749-7.315c-1.376-1.491-2.749-2.979-4.125-4.474-0.054-0.061-0.109-0.096-0.195-0.096-1.462 0.003-4.525 0.010-4.525 0.010 4.259 4.614 8.496 9.21 12.742 13.811-0.451 0.422-0.893 0.832-1.35 1.261-4.918-5.334-9.837-10.666-14.758-16z"></path>
  </symbol>

  <symbol id="icon-fractal_1" viewBox="0 0 32 32">
    <path d="M22.816 9.125l-22.816 22.875v-9.125l22.816-22.875z"></path>
  </symbol>

  <symbol id="icon-fractal_2" viewBox="0 0 32 32">
    <path d="M19.883 12.051l-19.883 19.949v-7.229l19.883-19.949z"></path>
  </symbol>
  
</svg>
