
<svg display="none" xmlns="http://www.w3.org/2000/svg">

  <symbol id="Icon-test" class="icon-test" viewBox="0 0 1000 1000" xmlns="http://www.w3.org/2000/svg">
    <path d="M992.5 992.5H7.5V7.5h985v985zM173.7 826.3h652.6V173.7H173.7v652.6z"/>
  </symbol>

  <symbol id="Icon-addsmooth" viewBox="0 0 32 32">
    <path d="M31.99 16.006c0 0.794-0.323 1.514-0.842 2.032-0.522 0.522-1.238 0.842-2.032 0.842h-10.282v10.234c0 1.587-1.286 2.877-2.877 2.877-0.794 0-1.514-0.323-2.032-0.842-0.522-0.522-0.842-1.238-0.842-2.032v-10.234h-10.208c-1.59 0-2.877-1.29-2.877-2.877 0-0.794 0.323-1.514 0.842-2.032 0.522-0.522 1.238-0.842 2.032-0.842h10.208v-10.259c0-1.587 1.286-2.877 2.877-2.877 0.794 0.003 1.514 0.323 2.032 0.845 0.522 0.522 0.842 1.238 0.842 2.032v10.259h10.282c1.59 0 2.877 1.286 2.877 2.874z"></path>
  </symbol>

  <symbol id="Icon-backarrow_smooth" viewBox="0 0 18 32">
    <path d="M0.925 14.091l13.389-13.389c0.937-0.937 2.458-0.937 3.394 0s0.937 2.458 0 3.394l-11.902 11.902 11.899 11.899c0.937 0.937 0.937 2.457 0 3.394s-2.457 0.937-3.394 0l-13.608-13.608c-0.937-0.937-0.937-2.457 0-3.394 0.071-0.071 0.146-0.137 0.223-0.197z"></path>
  </symbol>

  <symbol id="Icon-forarrow_smooth" viewBox="0 0 18 32">
    <path d="M17.486 14.091l-13.389-13.389c-0.937-0.937-2.458-0.937-3.394 0s-0.937 2.458 0 3.394l11.902 11.902-11.899 11.899c-0.937 0.937-0.937 2.457 0 3.394s2.458 0.937 3.394 0l13.608-13.608c0.937-0.937 0.937-2.457 0-3.394-0.071-0.071-0.146-0.137-0.223-0.197z"></path>
  </symbol>

  <symbol id="Icon-burgermenu_smooth" viewBox="0 0 32 32">
    <path d="M32.038 2.474c0-1.366-1.195-2.474-2.667-2.474h-26.667c-1.472 0-2.667 1.109-2.667 2.474s1.195 2.475 2.667 2.475h26.667c1.472 0 2.667-1.109 2.667-2.474z"></path>
    <path d="M32.038 29.526c0-1.366-1.195-2.474-2.667-2.474h-26.667c-1.472 0-2.667 1.109-2.667 2.474s1.195 2.474 2.667 2.474h26.667c1.472 0 2.667-1.109 2.667-2.474z"></path>
    <path d="M32 16c0-1.366-1.195-2.474-2.667-2.474h-26.667c-1.472 0-2.667 1.109-2.667 2.474s1.195 2.474 2.667 2.474h26.667c1.472 0 2.667-1.109 2.667-2.474z"></path>
  </symbol>

  <symbol id="Icon-options" class="icon-options" viewBox="0 0 1000 1000" xmlns="http://www.w3.org/2000/svg">
    <path d="M542.9 588.2v.1h-.1zM1000.1 786.1c0 61.6-49.9 111.5-111.5 111.5-46.4 0-86.2-28.3-103-68.7H97.4v-85.7h688.3c16.8-40.3 56.6-68.7 103-68.7 61.5.1 111.4 50 111.4 111.6zM902.5 151v85.7H214.3c-16.8 40.3-56.6 68.7-103 68.7C49.7 305.4-.2 255.5-.2 193.9S49.7 82.3 111.3 82.3c46.4 0 86.2 28.3 103 68.7h688.2zM902.5 447.1v85.7H534.2c-16.8 40.3-56.5 68.7-103 68.7-46.4 0-86.2-28.3-103-68.7h-231v-85.7h231c16.8-40.3 56.6-68.7 103-68.7s86.2 28.3 103 68.7h368.3z"/>
  </symbol>

  <symbol id="Icon-config" class="icon-config" viewBox="0 0 1000 1000" xmlns="http://www.w3.org/2000/svg">
    <path d="M999.4 415.1v1c-46.8 27-93.5 54-140.3 81-.8.5-1.6 1-2.5 1.5-.3.2-.5.4-.8.6-.1.1-.2.2-.3.4-.1.1-.1.3-.2.7 1.3.8 2.6 1.6 4 2.4 11.1 6.4 22.1 12.8 33.2 19.2 33.8 19.5 67.5 39 101.3 58.5 1.6.9 3.5 1.6 4.8 3.4-.1 1.3 0 2.7-.3 4.1l-3.9 18.3c-4.2 18.9-9.2 37.5-15.5 55.9-5.6 16.5-12 32.7-19.3 48.5-7.5 16.4-15.8 32.5-25.2 47.9-7 11.5-14.2 22.7-21.4 34.1-.1.1-.3.2-.4.2-.1.1-.3.1-.5.1-1.2-.3-2.5-.5-3.7-.9-33.8-9-67.6-18.1-101.3-27.1-17.9-4.8-35.8-9.6-53.7-14.3-.8-.2-1.5-.6-2.2.5 14.3 53.4 28.5 106.9 42.9 160.6-1.2.9-2.2 1.6-3.3 2.3-8 5-15.9 10.1-24 15-46.2 28.5-95.6 49.2-148.4 61.9-9.6 2.3-19.3 4.4-28.9 6.7-1.3.3-2.9.3-3.6 1.9h-1c-10-17.3-19.9-34.6-29.9-51.9-17.2-29.8-34.4-59.5-51.6-89.2-.8-1.3-1.3-2.8-2.9-4-1 1.6-1.9 2.9-2.7 4.2-6.1 10.5-12.2 21-18.2 31.5-20.1 34.7-40.1 69.5-60.2 104.2-.9 1.5-1.5 3.2-2.9 4.2-40.2-8.9-52.4-12.1-73.8-19.1-24-7.9-47.3-17.5-69.9-29-23.2-11.8-61.2-34.8-65.2-39.2.2-.9.3-1.8.6-2.8 9.3-34.9 18.7-69.7 28-104.6 4.5-16.7 8.9-33.3 13.3-50 .3-1.2 1.1-2.4-.1-3.6-53.5 14.3-107 28.6-160.6 42.9-1-1.5-1.9-2.8-2.8-4.2-4.3-6.8-8.5-13.5-12.8-20.3-16.6-26.3-30.5-54-42-82.8-10.6-26.6-18.8-54-24.9-82-1.5-6.7-3-13.3-4.6-20.2 9.8-5.6 19.4-11.2 29.1-16.8 9.5-5.5 19.1-11 28.6-16.5 9.7-5.6 19.4-11.2 29-16.8 9.5-5.5 19.1-11 28.6-16.5 9.6-5.6 19.3-11 29.6-17.1C130 490.3 114 481 98 471.8c-16.1-9.3-32.1-18.5-48.1-27.8s-32.1-18.4-48.1-27.9c.3-1.6.6-3 .9-4.4 1.8-7.6 3.6-15.2 5.3-22.9 11.6-51.4 30.8-99.7 57.5-145.1 6.9-11.7 14.2-23.1 21.4-34.7.4-.7.9-1.3 1.5-2.1 1.4.3 2.8.5 4.2.8 29.9 8 59.8 16 89.8 24 21.4 5.7 42.9 11.5 64.3 17.2 1 .3 2.1 1 3.3-.1-.2-1-.4-2-.7-3.1-7.6-28.5-15.2-57.1-22.9-85.6-6.1-22.7-12.1-45.4-18.2-68-.4-1.4-1-2.7-.3-4.4 1.1-.7 2.3-1.5 3.5-2.2 6.8-4.3 13.5-8.5 20.3-12.8 37-23.2 76.4-41.3 118-54.5 21-6.7 42.6-11.4 64-16.2.7-.2 1.4-.6 2.1-.9h1c.1.3.1.6.2.9 16.6 28.8 33.3 57.5 49.9 86.3 10.3 17.8 20.6 35.7 30.9 53.5.8 1.3 1.2 3 3.1 3.9 5.5-9.5 11-19.1 16.5-28.6L534.2 88c5.5-9.5 11-19.1 16.5-28.6 5.6-9.7 11.1-19.4 16.8-29.1 5.5-9.5 10.9-19.1 16.7-28.7 2.1.4 3.9.6 5.8 1l21.9 5.1c45 10.2 87.7 26.3 128.3 48.1 17.9 9.6 34.9 20.6 52.1 31.4.4.2.7.6 1.3 1.2-4.6 17.8-9.5 35.6-14.3 53.5l-14.4 53.7c-4.8 17.9-9.5 35.7-14.2 53.4 1.4 1 2.4.4 3.5.1 16.7-4.5 33.3-8.9 50-13.4 34.7-9.3 69.4-18.5 104.1-27.8 1.4-.4 2.7-1 4.4-.3.7 1.1 1.5 2.2 2.3 3.5 4.3 6.9 8.7 13.8 13 20.7 10.1 16 19.1 32.5 27.3 49.5 20.4 42.4 34.5 86.9 43 133.2.4-.2.8.2 1.1.6zM378 93.5c-6.2.8-26.9 8.1-44.5 15.7-17.2 7.4-29.3 13.4-33.1 16.5.3 1.4.7 3 1.1 4.5 9.5 35.6 19 71.3 28.6 106.9 3.5 13.3 3.7 26.5 0 39.8-10.6 38.3-50.2 63.3-91.5 52.3-35.8-9.5-71.6-19.1-107.4-28.7-1.7-.4-3.3-1.1-5-1-8.7 12.8-29.6 63.4-31.9 77.2 1.2.8 2.5 1.6 3.9 2.4 13.6 7.8 27.1 15.7 40.7 23.5 18.8 10.9 37.8 21.5 56.4 32.7 23.2 14 35.6 34.9 36.6 62 .8 20.5-6.1 38.3-19.9 53.3-5.7 6.2-12.4 10.9-19.7 15.1-31.3 18-62.6 36.1-93.8 54.1-1.5.9-3 1.8-4.6 2.8 8.2 26.9 18.8 52.5 32 77.1 1-.1 1.8-.2 2.6-.4 4.9-1.3 9.9-2.7 14.8-4 32.1-8.6 64.2-17.2 96.3-25.7 9-2.4 18.2-3.1 27.6-1.8 19.4 2.5 35.6 11.1 48.1 26.1 16.6 20 21.4 42.9 14.9 67.9-9.4 35.9-19.1 71.6-28.6 107.4-.4 1.5-.7 3.1-1.1 4.8 24.7 13.2 50.3 23.8 77.2 31.9 1-1.5 1.8-2.9 2.6-4.2 5.3-9.1 10.6-18.3 15.8-27.4 13.4-23.2 26.7-46.6 40.3-69.7 21.6-36.8 68.8-47.6 104.4-25.3 10.8 6.8 19.1 15.9 25.4 26.9 18.2 31.6 36.4 63.1 54.6 94.7.9 1.6 2 3.2 2.9 4.8 14.3-2.4 68.5-25 77.4-32.3-.4-1.8-.8-3.6-1.3-5.5-9.4-35.2-18.8-70.4-28.3-105.5-3.3-12.1-3.8-24.3-1.1-36.5 7.3-32.9 36.2-58.1 72-58.7 7.6-.1 15 1.1 22.2 3 33.9 9.1 67.9 18.2 101.8 27.3 2.9.8 5.8 1.5 8.9 2.2.7-1.1 1.3-2 1.8-3 12.1-23.1 22-47.2 29.7-72.1.2-.7.3-1.5.4-2.3-2-1.2-3.7-2.2-5.5-3.3-31.5-18.2-63.2-36.3-94.6-54.7-21.4-12.5-34-31-37.2-55.7-2.8-21.4 3-40.5 16.7-57.2 5.9-7.3 13.2-12.9 21.3-17.6 31.7-18.2 63.4-36.6 95.1-54.9 1.5-.9 3.2-1.5 4.2-2.9-4.8-19.9-23.7-64.3-32.2-77-1.4.3-3 .6-4.5 1-35.8 9.6-71.6 19.1-107.4 28.7-10.3 2.8-20.8 3.4-31.3 1.7-20.1-3.3-36.3-13-48.3-29.3-13.9-18.8-18-39.9-12.5-62.7 2.3-9.5 4.9-18.8 7.5-28.3 7.3-27.5 14.7-54.9 22-82.4.3-1 .3-2.1.4-3-.5-.4-.8-.6-1-.8-23.5-12.5-47.9-22.6-73.3-30.5-.9-.3-1.8-.3-2.9-.4-1.1 1.8-2.1 3.4-3.1 5-18.3 31.7-36.4 63.5-54.9 95-13.8 23.5-34.6 36.3-61.9 37.6-20.3 1-38-5.6-53.2-19.1-6.7-5.9-11.7-13-16.1-20.7-17.9-31.2-35.9-62.3-53.9-93.4-.9-1.1-1.8-2.6-2.6-3.9z"/>
    <path d="M700.3 499.8c.3 109.6-89.5 199.5-199.7 199.5-108.3 0-199.8-87.9-199.6-200.1C301.2 388 392 299 502.4 300c111 1 198.5 91.9 197.9 199.8zM500.9 379.9c-66.1 0-119.7 53.8-119.9 119.4-.1 65.8 53.4 119.7 119.3 120 65.9.2 119.8-53.6 120.1-119.2.3-64.9-52.4-119.9-119.5-120.2z"/>
  </symbol>

  <symbol id="Icon-spotify" viewBox="0 0 32 32">
    <path d="M26.215 14.556c-0.215 0-0.439-0.050-0.644-0.147-3.782-1.891-7.854-2.847-12.112-2.847-2.213 0-4.416 0.275-6.559 0.801-0.791 0.194-1.579-0.285-1.774-1.063-0.195-0.791 0.282-1.734 1.060-1.931 2.38-0.584 4.815-0.886 7.272-0.886 4.705 0 9.228 1.063 13.41 3.149 0.728 0.359 1.023 1.237 0.661 1.968-0.252 0.506-0.768 0.956-1.315 0.956zM25.367 19.379c-0.225 0.439-0.674 1.15-1.13 1.15-0.205 0-0.399-0.048-0.594-0.145-3.169-1.649-6.589-2.477-10.184-2.477-1.978 0-3.939 0.255-5.838 0.781-0.684 0.184-1.385-0.215-1.569-0.898-0.185-0.691 0.215-1.851 0.896-2.036 2.116-0.574 4.309-0.868 6.512-0.868 3.947 0 7.884 0.956 11.361 2.769 0.633 0.322 0.878 1.090 0.546 1.724zM23.339 25.391c-0.195 0.362-0.574 0.566-0.953 0.566-0.187 0-0.362-0.040-0.536-0.137-2.555-1.402-5.459-2.153-8.39-2.153-1.756 0-3.5 0.262-5.157 0.778-0.584 0.177-1.197-0.145-1.375-0.721-0.175-0.574 0.147-1.801 0.721-1.988 1.881-0.574 3.832-0.876 5.811-0.876 3.303 0 6.576 0.838 9.453 2.428 0.534 0.292 0.721 1.567 0.426 2.103zM15.962 0.064c-8.809 0-15.962 7.153-15.962 15.962 0 8.822 7.152 15.974 15.962 15.974 8.822 0 15.974-7.152 15.974-15.974 0-8.809-7.153-15.962-15.974-15.962z"></path>
  </symbol>
  
  <symbol id="Icon-youtube" viewBox="0 0 32 32">
    <path d="M31.861 10.167c-0.184-3.82-1.501-5.205-5.224-5.292-7.161-0.16-14.332-0.131-21.493 0-3.23 0.063-4.697 1.269-4.919 4.445-0.31 4.484-0.286 9.011 0 13.499 0.199 3.070 1.646 4.169 4.716 4.271 3.36 0.111 6.721 0.024 10.086 0.024v0.063c3.888 0 7.786 0.155 11.669-0.044 3.704-0.189 4.881-1.322 5.113-5.060 0.247-3.956 0.247-7.946 0.053-11.906zM12.871 20.267v-8.628c2.741 1.428 5.181 2.702 8.11 4.227-2.91 1.578-5.375 2.92-8.11 4.401z"></path>
  </symbol>

  <symbol id="Icon-soundcloud" viewBox="0 0 32 32">
    <path d="M12.409 19.431c-0.119 1.112-0.23 2.129-0.341 3.145-0.165-0.012-0.334-0.019-0.499-0.031-0.744-3.491-0.142-7.004 0.069-10.525 0.867 1.5 0.345 3.184 0.806 5.032 0.123-1.772 0.23-3.264 0.368-5.22 0.859 0.951 0.671 1.649 0.706 2.267 0.038 0.694 0.008 1.392 0.188 2.090 0.157-1.772 0.311-3.548 0.468-5.32 0.142-0.004 0.284-0.004 0.43-0.008 0.15 0.564 0.303 1.128 0.453 1.692 0.069 0.015 0.138 0.031 0.207 0.046 0.1-0.809 0.199-1.619 0.311-2.547 1.312 0.43 0.783 1.523 1.020 2.133 0.046-0.786 0.096-1.684 0.142-2.501 4.503-1.906 8.055 0.042 9.912 5.385 0.572 0 1.197-0.042 1.81 0.008 1.818 0.146 3.268 1.55 3.506 3.349 0.253 1.933-0.817 3.709-2.654 4.254-0.66 0.196-1.377 0.276-2.071 0.284-2.942 0.031-5.892-0.073-8.83 0.065-0.963 0.046-1.741-0.951-2.739-0.338-0.019 0.012-0.353-0.491-0.549-0.763-0.219 0.322-0.403 0.591-0.725 1.066-0.276-0.775-0.476-1.339-0.733-2.060-0.115 0.625-0.215 1.162-0.341 1.849-0.66-1.005-0.66-1.005-0.913-3.352z"></path>
    <path d="M5.646 20.397c-0.104 0.652-0.207 1.304-0.361 2.248-0.921-3.161-0.921-3.161-0.035-6.628 0.169 0.852 0.284 1.442 0.399 2.029 0.073 0.012 0.146 0.027 0.219 0.038 0.173-1.304 0.341-2.608 0.514-3.912h0.272c0.092 0.94 0.18 1.88 0.272 2.815 0.706-1.277 0.357-2.716 0.959-4.058 0.165 1.511 0.33 3.019 0.499 4.53 0.107 0 0.215 0 0.326 0.004v-5.389c1.273 2.206 1.385 7.76 0.242 10.847-0.142-1.201-0.23-1.968-0.376-3.214-0.303 1.193-0.499 1.956-0.802 3.145-0.245-1.020-0.403-1.669-0.556-2.317-0.077-0.015-0.157-0.035-0.234-0.050-0.119 0.66-0.238 1.323-0.445 2.474-0.299-1.185-0.476-1.887-0.656-2.593-0.077 0.015-0.157 0.023-0.238 0.031z"></path>
    <path d="M10.387 12.001c0.836 1.745 0.89 8.4 0.088 10.475-0.71-1.83-0.759-7.764-0.088-10.475z"></path>
    <path d="M4.089 22.587c-1.039-2.397-0.867-4.269-0.165-6.448 0.656 2.198 0.372 4.112 0.165 6.448z"></path>
    <path d="M2.934 16.577v5.424c-1.066-1.81-1.063-3.636 0-5.424z"></path>
    <path d="M1.653 17.014v4.626c-1.139-1.734-0.863-3.149 0-4.626z"></path>
    <path d="M0 20.439v-2.336c0.107 0 0.215 0 0.322-0.004v2.336c-0.107 0.004-0.215 0.004-0.322 0.004z"></path>
  </symbol>

  <symbol id="Icon-apple" viewBox="0 0 26 32">
    <path d="M21.72 16.968c0.045 4.833 4.24 6.442 4.287 6.462-0.035 0.113-0.67 2.292-2.21 4.543-1.331 1.946-2.713 3.884-4.889 3.924-2.139 0.039-2.826-1.268-5.271-1.268s-3.208 1.228-5.233 1.308c-2.101 0.079-3.701-2.104-5.043-4.043-2.743-3.965-4.839-11.205-2.024-16.092 1.398-2.427 3.897-3.964 6.609-4.003 2.063-0.039 4.010 1.388 5.271 1.388s3.627-1.716 6.114-1.464c1.041 0.043 3.965 0.421 5.842 3.168-0.151 0.094-3.488 2.036-3.452 6.077zM17.7 5.1c1.115-1.35 1.866-3.23 1.661-5.1-1.608 0.065-3.552 1.071-4.705 2.421-1.033 1.195-1.939 3.107-1.694 4.94 1.792 0.139 3.623-0.911 4.738-2.262z"></path>
  </symbol>

</svg>